#!OML:ASF H:\Dans Jumps\Project 1\Capture day 1\Session 1\subject.ASF
:FULLY-SPECIFIED
:DEGREES
170
root 0.265864 18.9521 -10.1736 10.2702 3.82663 0.592608
lowerback -0.217047 -0.878401 -1.6563
upperback 2.39909 -1.17048 1.2049
thorax 2.64282 -0.634667 2.1362
lowerneck -10.9214 -0.174038 -3.51016
upperneck 29.172 -0.0680363 2.19982
head 11.2421 -0.142104 1.406
rclavicle 5.1684e-015 2.98177e-015
rhumerus -17.1242 0.161755 -81.9416
rradius 39.1822
rwrist 22.1932
rhand -16.5811 -23.051
rfingers 7.12502
rthumb 9.63952 -52.8104
lclavicle 5.1684e-015 2.98177e-015
lhumerus -9.6063 -16.6137 86.9249
lradius 35.6239
lwrist 21.025
lhand -27.4466 -7.19813
lfingers 7.12502
lthumb -0.851389 22.7799
rfemur -11.4233 -5.43678 17.6797
rtibia 30.0352
rfoot 9.87456 -7.28715
rtoes -1.31678
lfemur -17.0082 6.73808 -16.9772
ltibia 34.7522
lfoot 18.4495 -2.68378
ltoes -10.5346
171
root 0.264821 19.1318 -10.0329 9.98682 3.96481 0.577991
lowerback -0.568145 -0.916732 -1.69496
upperback 2.4698 -1.21695 1.21154
thorax 2.91706 -0.662255 2.15727
lowerneck -10.4757 -0.185355 -3.49562
upperneck 29.3545 -0.113549 2.22942
head 11.2236 -0.160308 1.40918
rclavicle 2.127e-014 9.93923e-016
rhumerus -17.3893 0.509312 -81.9012
rradius 39.7485
rwrist 22.029
rhand -16.4643 -22.9707
rfingers 7.12502
rthumb 9.75217 -52.7249
lclavicle 2.127e-014 9.93923e-016
lhumerus -9.89192 -16.861 86.9523
lradius 36.3621
lwrist 21.6946
lhand -27.6981 -7.25222
lfingers 7.12502
lthumb -1.09434 22.7247
rfemur -11.3027 -5.46585 17.628
rtibia 30.0572
rfoot 13.4617 -8.68752
rtoes 3.42812
lfemur -16.8096 6.19491 -16.7976
ltibia 34.4022
lfoot 22.3379 -2.53321
ltoes -6.67685
172
root 0.262324 19.3011 -9.89851 9.7281 4.12051 0.562498
lowerback -0.827227 -0.964822 -1.76017
upperback 2.51999 -1.27703 1.23186
thorax 3.12027 -0.696642 2.20807
lowerneck -10.0987 -0.196619 -3.50322
upperneck 29.575 -0.155808 2.27281
head 11.2338 -0.177948 1.42256
rclavicle -1.00883e-014 1.19271e-014
rhumerus -17.6651 0.841207 -81.8502
rradius 40.2558
rwrist 21.9013
rhand -16.4279 -22.8935
rfingers 7.12502
rthumb 9.78732 -52.6461
lclavicle -1.00883e-014 1.19271e-014
lhumerus -10.1863 -17.0605 86.9921
lradius 37.0266
lwrist 22.4179
lhand -27.9546 -7.25359
lfingers 7.12502
lthumb -1.34203 22.7219
rfemur -11.4318 -5.56421 17.6079
rtibia 30.4262
rfoot 16.7287 -10.2393
rtoes 9.51682
lfemur -16.7791 5.70463 -16.6484
ltibia 34.2548
lfoot 25.587 -2.38991
ltoes -2.45408
173
root 0.258802 19.4592 -9.77058 9.48918 4.27879 0.54774
lowerback -0.987429 -1.01681 -1.8412
upperback 2.55266 -1.34306 1.25858
thorax 3.25079 -0.733695 2.27557
lowerneck -9.78924 -0.2088 -3.52996
upperneck 29.82 -0.197429 2.33082
head 11.2672 -0.195693 1.44543
rclavicle -7.7526e-015 -2.78299e-015
rhumerus -17.9415 1.13721 -81.7953
rradius 40.6918
rwrist 21.7926
rhand -16.4518 -22.8088
rfingers 7.12502
rthumb 9.76427 -52.5624
lclavicle -7.7526e-015 -2.78299e-015
lhumerus -10.4843 -17.2164 87.0379
lradius 37.613
lwrist 23.1414
lhand -28.1812 -7.22167
lfingers 7.12502
lthumb -1.56088 22.7524
rfemur -11.7845 -5.71321 17.6104
rtibia 31.1235
rfoot 19.5123 -11.6385
rtoes 15.849
lfemur -16.8973 5.28347 -16.5335
ltibia 34.3051
lfoot 27.9736 -2.36228
ltoes 1.44487
174
root 0.254789 19.6054 -9.64915 9.26482 4.42023 0.52956
lowerback -1.04749 -1.06514 -1.92081
upperback 2.57366 -1.4054 1.28489
thorax 3.31273 -0.768116 2.34362
lowerneck -9.54842 -0.221009 -3.55672
upperneck 30.0747 -0.238066 2.39218
head 11.3186 -0.21251 1.4702
rclavicle -1.16786e-014 9.34288e-015
rhumerus -18.2052 1.3767 -81.7454
rradius 41.0473
rwrist 21.6868
rhand -16.5018 -22.7288
rfingers 7.12502
rthumb 9.71602 -52.4847
lclavicle -1.16786e-014 9.34288e-015
lhumerus -10.7763 -17.3263 87.0808
lradius 38.1135
lwrist 23.7979
lhand -28.3519 -7.18221
lfingers 7.12502
lthumb -1.72578 22.7906
rfemur -12.3268 -5.86833 17.6316
rtibia 32.0965
rfoot 21.751 -12.5349
rtoes 21.2288
lfemur -17.1417 4.92669 -16.4471
ltibia 34.5347
lfoot 29.4604 -2.48267
ltoes 4.59215
175
root 0.251011 19.7397 -9.53359 9.04796 4.53697 0.514077
lowerback -1.01372 -1.10778 -1.99137
upperback 2.59192 -1.46146 1.30345
thorax 3.31823 -0.798445 2.40055
lowerneck -9.37454 -0.233602 -3.58097
upperneck 30.324 -0.278401 2.45568
head 11.3818 -0.228439 1.49569
rclavicle -2.98177e-016 -9.93923e-016
rhumerus -18.4474 1.5486 -81.7076
rradius 41.3225
rwrist 21.5742
rhand -16.5323 -22.6837
rfingers 7.12502
rthumb 9.68661 -52.441
lclavicle -2.98177e-016 -9.93923e-016
lhumerus -11.0563 -17.3866 87.1129
lradius 38.5312
lwrist 24.3374
lhand -28.4426 -7.10781
lfingers 7.12502
lthumb -1.81337 22.8642
rfemur -13.0125 -6.00363 17.6567
rtibia 33.2632
rfoot 23.4675 -12.7091
rtoes 25.0228
lfemur -17.4841 4.62313 -16.3934
ltibia 34.9053
lfoot 30.1623 -2.71861
ltoes 6.72569
176
root 0.24798 19.8625 -9.42295 8.83244 4.61738 0.501263
lowerback -0.895861 -1.14123 -2.04559
upperback 2.61579 -1.50675 1.31156
thorax 3.28078 -0.822395 2.43958
lowerneck -9.27468 -0.24585 -3.59108
upperneck 30.5638 -0.316083 2.50961
head 11.4566 -0.242417 1.51576
rclavicle 5.41688e-015 1.98785e-016
rhumerus -18.6605 1.64153 -81.6842
rradius 41.5219
rwrist 21.4593
rhand -16.5124 -22.6948
rfingers 7.12502
rthumb 9.70581 -52.4512
lclavicle 5.41688e-015 1.98785e-016
lhumerus -11.3136 -17.3942 87.1295
lradius 38.862
lwrist 24.728
lhand -28.441 -7.0679
lfingers 7.12502
lthumb -1.8118 22.9042
rfemur -13.7941 -6.09685 17.6785
rtibia 34.5219
rfoot 24.6359 -12.2508
rtoes 27.208
lfemur -17.8919 4.37368 -16.3702
ltibia 35.3596
lfoot 30.3218 -2.98868
ltoes 7.91647
177
root 0.245749 19.9745 -9.31668 8.61269 4.6561 0.492196
lowerback -0.696959 -1.16297 -2.08348
upperback 2.65187 -1.53784 1.30747
thorax 3.20862 -0.838384 2.45906
lowerneck -9.25514 -0.255591 -3.58089
upperneck 30.797 -0.347231 2.54802
head 11.5455 -0.252634 1.52765
rclavicle -1.73937e-015 1.07344e-014
rhumerus -18.8352 1.64502 -81.6777
rradius 41.6487
rwrist 21.3559
rhand -16.4666 -22.7213
rfingers 7.12502
rthumb 9.74996 -52.4756
lclavicle -1.73937e-015 1.07344e-014
lhumerus -11.5353 -17.3482 87.1291
lradius 39.1052
lwrist 24.976
lhand -28.3578 -7.001
lfingers 7.12502
lthumb -1.73148 22.9717
rfemur -14.6279 -6.13448 17.6932
rtibia 35.7651
rfoot 25.3186 -11.4355
rtoes 28.2114
lfemur -18.3333 4.17931 -16.3747
ltibia 35.8289
lfoot 30.1932 -3.2062
ltoes 8.45105
178
root 0.244009 20.0767 -9.21382 8.38156 4.6549 0.498602
lowerback -0.421428 -1.17468 -2.1241
upperback 2.70441 -1.55657 1.29129
thorax 3.10928 -0.847936 2.46962
lowerneck -9.28853 -0.261603 -3.564
upperneck 31.0067 -0.371207 2.58165
head 11.636 -0.259034 1.5374
rclavicle 1.26228e-014 -1.68967e-014
rhumerus -18.9674 1.55794 -81.6891
rradius 41.7022
rwrist 21.2801
rhand -16.4166 -22.7521
rfingers 7.12502
rthumb 9.79825 -52.5042
lclavicle 1.26228e-014 -1.68967e-014
lhumerus -11.7165 -17.2429 87.1151
lradius 39.2606
lwrist 25.099
lhand -28.2011 -6.89478
lfingers 7.12502
lthumb -1.58011 23.0791
rfemur -15.4671 -6.12251 17.6888
rtibia 36.892
rfoot 25.6035 -10.5102
rtoes 28.4536
lfemur -18.7725 4.04919 -16.415
ltibia 36.2484
lfoot 29.9741 -3.30055
ltoes 8.68279
179
root 0.24242 20.1696 -9.11381 8.13963 4.61901 0.522204
lowerback -0.0779188 -1.17358 -2.17374
upperback 2.77495 -1.55919 1.26538
thorax 2.98929 -0.849463 2.47712
lowerneck -9.37252 -0.269792 -3.54148
upperneck 31.194 -0.395455 2.60787
head 11.7286 -0.265364 1.54328
rclavicle 6.01324e-015 -7.55382e-015
rhumerus -19.0491 1.37459 -81.7084
rradius 41.6791
rwrist 21.2534
rhand -16.4019 -22.7538
rfingers 7.12502
rthumb 9.81247 -52.5052
lclavicle 6.01324e-015 -7.55382e-015
lhumerus -11.8459 -17.0878 87.0986
lradius 39.322
lwrist 25.1313
lhand -27.9901 -6.75054
lfingers 7.12502
lthumb -1.37631 23.2248
rfemur -16.2821 -6.0643 17.6641
rtibia 37.8189
rfoot 25.5772 -9.67807
rtoes 28.2736
lfemur -19.1887 3.98266 -16.4894
ltibia 36.566
lfoot 29.7501 -3.25324
ltoes 8.88596
180
root 0.240226 20.2531 -9.01589 7.88801 4.55339 0.555394
lowerback 0.321228 -1.16083 -2.23862
upperback 2.86126 -1.54738 1.23699
thorax 2.85386 -0.844074 2.49208
lowerneck -9.47914 -0.276808 -3.51552
upperneck 31.355 -0.415386 2.62599
head 11.8155 -0.269986 1.54579
rclavicle 1.55052e-014 -1.45113e-014
rhumerus -19.0891 1.11333 -81.7352
rradius 41.5758
rwrist 21.2856
rhand -16.4213 -22.7445
rfingers 7.12502
rthumb 9.79366 -52.4967
lclavicle 1.55052e-014 -1.45113e-014
lhumerus -11.942 -16.8779 87.0912
lradius 39.3115
lwrist 25.1007
lhand -27.7493 -6.56112
lfingers 7.12502
lthumb -1.14378 23.4156
rfemur -17.0492 -5.95676 17.6297
rtibia 38.4855
rfoot 25.3478 -9.00673
rtoes 28.0525
lfemur -19.5703 3.98627 -16.5834
ltibia 36.752
lfoot 29.4602 -3.0739
ltoes 9.02558
181
root 0.237301 20.3268 -8.9192 7.6327 4.47847 0.596227
lowerback 0.757757 -1.14227 -2.31942
upperback 2.96028 -1.529 1.21071
thorax 2.7108 -0.835816 2.51889
lowerneck -9.59607 -0.284353 -3.48886
upperneck 31.4909 -0.433596 2.63716
head 11.8948 -0.27431 1.54547
rclavicle 9.44227e-016 -1.63003e-014
rhumerus -19.0922 0.785301 -81.7645
rradius 41.3931
rwrist 21.3915
rhand -16.4829 -22.7171
rfingers 7.12502
rthumb 9.73429 -52.4721
lclavicle 9.44227e-016 -1.63003e-014
lhumerus -12.0143 -16.6134 87.1021
lradius 39.2362
lwrist 25.0266
lhand -27.4996 -6.34391
lfingers 7.12502
lthumb -0.902595 23.6339
rfemur -17.7515 -5.8236 17.5872
rtibia 38.8581
rfoot 24.8871 -8.4814
rtoes 27.8201
lfemur -19.9228 4.04434 -16.6915
ltibia 36.7965
lfoot 29.0291 -2.80809
ltoes 9.05215
